# Blender 4.3.2
# www.blender.org
mtllib garbagebag.mtl
o Icosphere
v -0.163664 -0.058767 -0.063484
v 0.206892 2.945411 -0.141052
v 0.732133 0.405957 0.985533
v -0.272781 0.574753 1.045189
v 0.207418 2.946887 0.168979
v -1.299220 0.698547 -0.157017
v -0.098379 2.941440 -0.136305
v -0.742166 0.322986 -1.065576
v 0.921647 0.464008 -0.824428
v 0.278354 1.856458 0.956676
v -0.099820 2.942419 0.165678
v -0.764467 2.031103 0.657005
v 0.296201 2.951413 0.013486
v -0.787129 1.887127 -0.520574
v 0.274638 1.799361 -0.954386
v -0.179993 2.942753 0.013884
v 0.940095 1.869835 -0.068882
v 0.086726 2.808665 -0.022173
v -0.242573 0.078492 0.573992
v 0.052207 2.946840 0.250428
v 0.427559 0.069095 0.429615
v 0.271395 0.298388 1.268819
v 0.052154 2.945614 -0.221387
v 0.936112 0.434302 -0.036109
v 0.477267 0.084321 -0.387359
v -0.930524 0.145840 -0.157017
v 0.202470 2.944195 -0.136656
v -0.859454 0.590975 0.433565
v -0.365173 0.047331 -0.587613
v 0.202954 2.945641 0.164645
v -1.207701 0.432083 -0.716005
v -0.094319 2.940367 -0.132133
v 0.274637 0.391990 -0.972425
v 1.017655 1.166533 0.318713
v 1.149098 1.076698 -0.607716
v -0.095724 2.941364 0.161558
v 0.002782 1.215782 1.150006
v 0.596312 1.018648 1.268824
v 0.289590 2.950138 0.013542
v -1.035437 1.335948 0.310209
v -0.597207 1.335948 0.839289
v -0.173990 2.941632 0.013932
v -0.979059 0.935677 -0.995044
v 0.052127 2.945602 0.244156
v -1.169635 1.190070 -0.403112
v 0.739866 1.013041 -1.131353
v -0.206541 0.859163 -1.236879
v 0.052078 2.944372 -0.215080
v 0.689158 1.998248 0.552241
v -0.280156 2.076840 0.864555
v -0.870317 2.155931 0.115835
v -0.276686 2.002668 -0.837234
v 0.729934 2.020518 -0.547962
v 0.191631 2.546219 0.511844
v 0.562280 2.506398 -0.026640
v -0.431301 2.612220 0.414867
v -0.335407 2.595694 -0.341433
v 0.265702 2.560727 -0.575248
v 0.098402 2.792490 -0.058255
v 0.107537 2.788673 -0.050166
v 0.108893 2.787482 -0.051529
v 0.121088 2.786824 -0.022496
v 0.123057 2.785572 -0.022514
v 0.099054 2.791586 -0.060271
v 0.027825 2.778949 -0.066719
v 0.042071 2.777582 -0.073356
v 0.042089 2.776630 -0.075298
v 0.026210 2.778134 -0.067941
v 0.074583 2.786013 -0.064993
v 0.075106 2.785127 -0.066938
v -0.033082 2.758209 0.014771
v -0.016031 2.769698 0.064519
v -0.031329 2.758991 0.014778
v -0.009150 2.764914 -0.035698
v -0.010470 2.764219 -0.037070
v -0.014512 2.770274 0.063237
v -0.012269 2.767627 0.068550
v 0.040802 2.757851 0.085366
v 0.004696 2.765020 0.072858
v 0.004248 2.764211 0.074552
v -0.010895 2.768271 0.067137
v 0.102528 2.769132 0.058267
v 0.093878 2.765055 0.067206
v 0.092458 2.765761 0.065841
v 0.102058 2.770308 0.055875
v 0.040837 2.757025 0.087065
v 0.106631 2.769217 0.050867
v 0.105146 2.770367 0.050319
v 0.126029 2.770124 0.014511
v 0.127796 2.769000 0.014499
vn 0.0325 -0.9762 0.2142
vn 0.6429 -0.7584 0.1073
vn -0.2733 -0.9468 0.1700
vn -0.2450 -0.9643 -0.1010
vn 0.0980 -0.9674 -0.2335
vn 0.9623 -0.1976 0.1867
vn -0.3757 0.0100 0.9267
vn -0.8066 -0.0939 0.5835
vn -0.6159 -0.1491 -0.7736
vn 0.2465 -0.4094 -0.8784
vn 0.9132 0.0142 0.4072
vn -0.4517 0.0485 0.8909
vn -0.9448 0.3067 0.1150
vn -0.2993 -0.0059 -0.9541
vn 0.7901 -0.0783 -0.6080
vn 0.5068 0.5113 0.6940
vn -0.3755 0.5316 0.7592
vn -0.7529 0.5652 -0.3372
vn -0.0259 0.4454 -0.8950
vn 0.8354 0.5095 -0.2062
vn 0.5241 0.8275 -0.2014
vn 0.7238 0.6053 -0.3313
vn 0.5001 0.3907 -0.7728
vn -0.1185 0.8912 -0.4379
vn -0.2580 0.6045 -0.7536
vn -0.5337 0.5107 -0.6740
vn -0.4057 0.9112 -0.0714
vn -0.6825 0.7237 -0.1023
vn -0.7770 0.5629 0.2818
vn 0.0273 0.8993 0.4366
vn -0.0531 0.6334 0.7720
vn 0.0785 0.5473 0.8333
vn 0.5146 0.8052 0.2946
vn 0.6607 0.6300 0.4082
vn 0.8417 0.4836 0.2401
vn 0.8771 0.4058 -0.2571
vn 0.7149 0.3556 -0.6020
vn 0.4650 0.4471 -0.7642
vn -0.0806 0.3244 -0.9425
vn -0.2569 0.3048 -0.9171
vn -0.5409 0.4602 -0.7040
vn -0.8587 0.4222 -0.2906
vn -0.9646 0.2263 0.1352
vn -0.9390 0.2461 0.2404
vn -0.4012 0.1408 0.9051
vn -0.4300 0.1537 0.8897
vn -0.0373 0.3034 0.9521
vn 0.5340 0.4656 0.7057
vn 0.8767 0.2272 0.4241
vn 0.9104 0.2721 0.3116
vn 0.0659 0.2560 -0.9644
vn 0.1605 -0.3558 -0.9207
vn 0.1105 -0.4010 -0.9094
vn -0.8211 0.3786 -0.4271
vn -0.9039 0.2012 -0.3775
vn -0.9640 0.1414 -0.2252
vn -0.7700 -0.0180 0.6378
vn -0.7679 -0.0761 0.6360
vn -0.7180 -0.1206 0.6855
vn -0.0825 0.3203 0.9437
vn -0.1710 0.0771 0.9822
vn 0.5488 -0.2476 0.7985
vn 0.9771 0.1748 0.1217
vn 0.9707 -0.1834 0.1555
vn 0.9405 -0.3385 -0.0300
vn 0.2097 -0.8336 -0.5110
vn 0.1566 -0.8508 -0.5016
vn 0.1070 -0.8224 -0.5587
vn -0.3770 -0.8994 -0.2214
vn -0.3644 -0.8897 -0.2749
vn -0.8251 -0.5504 0.1273
vn -0.7386 -0.4927 0.4602
vn -0.6123 -0.5942 0.5215
vn -0.6008 -0.5694 0.5612
vn 0.6255 -0.7791 -0.0408
vn 0.5960 -0.8027 0.0213
vn 0.2154 -0.9765 -0.0051
vn -0.5449 -0.5946 0.5912
vn 0.0449 -0.9615 0.2711
vn 0.3926 -0.8660 0.3097
vn 0.6798 -0.6304 0.3749
vn -0.3774 -0.5890 0.7146
vn -0.7215 -0.5751 -0.3856
vn 0.3577 -0.6205 -0.6979
vn -0.7242 -0.5746 0.3812
vn 0.6813 -0.6316 -0.3700
vn -0.3833 -0.5899 -0.7107
vn 0.3629 -0.6189 0.6966
vn -0.6836 0.6240 -0.3786
vn 0.3811 0.5816 -0.7187
vn 0.7255 0.5674 0.3894
vn -0.3614 0.6138 0.7019
vn 0.7282 0.5670 -0.3850
vn -0.6853 0.6252 0.3735
vn 0.3871 0.5825 0.7147
vn -0.3666 0.6123 -0.7005
vn -0.1916 0.9788 0.0726
vn -0.0985 0.9775 -0.1867
vn 0.1747 0.9805 -0.0905
vn 0.0786 0.9793 0.1866
vn -0.1914 0.9782 -0.0807
vn 0.1770 0.9803 0.0878
vn 0.0759 0.9795 -0.1867
vn -0.0949 0.9782 0.1848
vt 0.181819 0.000000
vt 0.227273 0.078731
vt 0.136365 0.078731
vt 0.272728 0.157461
vt 0.318182 0.078731
vt 0.363637 0.157461
vt 0.909091 0.000000
vt 0.954545 0.078731
vt 0.863636 0.078731
vt 0.727273 0.000000
vt 0.772727 0.078731
vt 0.681818 0.078731
vt 0.545455 0.000000
vt 0.590909 0.078731
vt 0.500000 0.078731
vt 0.318182 0.236191
vt 0.090910 0.157461
vt 0.181819 0.157461
vt 0.136365 0.236191
vt 0.818182 0.157461
vt 0.909091 0.157461
vt 0.863636 0.236191
vt 0.636364 0.157461
vt 0.727273 0.157461
vt 0.681818 0.236191
vt 0.454546 0.157461
vt 0.545455 0.157461
vt 0.500000 0.236191
vt 0.227273 0.236191
vt 0.045455 0.236191
vt 0.772727 0.236191
vt 0.590909 0.236191
vt 0.409092 0.236191
vt 0.181819 0.314921
vt 0.272728 0.314921
vt 0.227273 0.393651
vt 0.000000 0.314921
vt 0.090910 0.314921
vt 0.045455 0.393651
vt 0.727273 0.314921
vt 0.818182 0.314921
vt 0.772727 0.393651
vt 0.545455 0.314921
vt 0.636364 0.314921
vt 0.590909 0.393651
vt 0.363637 0.314921
vt 0.454546 0.314921
vt 0.409092 0.393651
vt 0.457511 0.467246
vt 0.454546 0.472382
vt 0.451262 0.466693
vt 0.455711 0.466461
vt 0.451073 0.466367
vt 0.500000 0.393651
vt 0.457677 0.466959
vt 0.455734 0.466117
vt 0.633233 0.466959
vt 0.681818 0.393651
vt 0.642880 0.461096
vt 0.640434 0.460903
vt 0.636247 0.464356
vt 0.640510 0.461218
vt 0.642706 0.461397
vt 0.636364 0.472382
vt 0.633399 0.467246
vt 0.636392 0.464640
vt 0.820889 0.453088
vt 0.827065 0.456996
vt 0.818182 0.472382
vt 0.811840 0.461397
vt 0.815063 0.455773
vt 0.811666 0.461096
vt 0.863636 0.393651
vt 0.827198 0.456765
vt 0.820861 0.452789
vt 0.814875 0.455519
vt 0.909091 0.314921
vt 0.081893 0.456765
vt 0.136365 0.393651
vt 0.097757 0.460523
vt 0.097094 0.458958
vt 0.090990 0.454683
vt 0.085253 0.455719
vt 0.082643 0.456241
vt 0.096820 0.459132
vt 0.097553 0.460875
vt 0.090910 0.472382
vt 0.082027 0.456996
vt 0.082749 0.456488
vt 0.085216 0.455987
vt 0.090886 0.454940
vt 0.318182 0.393651
vt 0.276201 0.466367
vt 0.272811 0.461332
vt 0.267037 0.460688
vt 0.265881 0.460523
vt 0.276012 0.466693
vt 0.272728 0.472382
vt 0.266085 0.460875
vt 0.266953 0.460998
vt 0.272642 0.461625
vt 0.954545 0.236191
vt 1.000000 0.157461
vt 0.409092 0.078731
vt 0.363637 0.000000
vt 0.522142 0.349770
vt 0.452792 0.349770
vt 0.452792 0.389553
vt 0.524388 0.389553
vt 0.522706 0.381760
vt 0.522605 0.376187
vt 0.527805 0.429336
vt 0.452792 0.429336
vt 0.452792 0.469120
vt 0.523175 0.469120
vt 0.524622 0.457943
vt 0.526976 0.508903
vt 0.452792 0.508903
vt 0.452792 0.548686
vt 0.524510 0.548686
vt 0.515966 0.608257
vt 0.519755 0.588470
vt 0.452792 0.588470
vt 0.452792 0.628253
vt 0.514809 0.628253
vt 0.513273 0.621318
vt 0.522343 0.472538
vt 0.514809 0.309986
vt 0.452792 0.309986
vt 0.515656 0.327389
vt 0.519093 0.578556
vt 0.522177 0.349770
vt 0.522645 0.376353
vt 0.522723 0.380642
vt 0.524634 0.389553
vt 0.528014 0.429336
vt 0.524830 0.458308
vt 0.523442 0.469120
vt 0.524774 0.548686
vt 0.527208 0.508903
vt 0.513270 0.621690
vt 0.514721 0.628253
vt 0.519805 0.588470
vt 0.516001 0.608418
vt 0.522624 0.472502
vt 0.514721 0.309986
vt 0.515554 0.326905
vt 0.519203 0.579407
s 1
usemtl GarbagebagMaterial
f 1/1/1 21/2/1 19/3/1
f 3/4/2 21/5/2 24/6/2
f 1/7/3 19/8/3 26/9/3
f 1/10/4 26/11/4 29/12/4
f 1/13/5 29/14/5 25/15/5
f 3/4/6 24/6/6 34/16/6
f 4/17/7 22/18/7 37/19/7
f 6/20/8 28/21/8 40/22/8
f 8/23/9 31/24/9 43/25/9
f 9/26/10 33/27/10 46/28/10
f 3/4/11 34/16/11 38/29/11
f 4/17/12 37/19/12 41/30/12
f 6/20/13 40/22/13 45/31/13
f 8/23/14 43/25/14 47/32/14
f 9/26/15 46/28/15 35/33/15
f 10/34/16 49/35/16 54/36/16
f 12/37/17 50/38/17 56/39/17
f 14/40/18 51/41/18 57/42/18
f 15/43/19 52/44/19 58/45/19
f 17/46/20 53/47/20 55/48/20
f 59/49/21 18/50/21 62/51/21 60/52/21
f 63/53/21 55/48/21 58/54/21 64/55/21 61/56/21
f 55/48/22 53/47/22 58/54/22
f 53/47/23 15/43/23 58/54/23
f 64/57/24 58/45/24 57/58/24 68/59/24 67/60/24 70/61/24
f 66/62/24 65/63/24 18/64/24 59/65/24 69/66/24
f 58/45/25 52/44/25 57/58/25
f 52/44/26 14/40/26 57/58/26
f 73/67/27 76/68/27 18/69/27 65/70/27 74/71/27
f 68/72/27 57/42/27 56/73/27 72/74/27 71/75/27 75/76/27
f 57/42/28 51/41/28 56/73/28
f 51/41/29 12/77/29 56/73/29
f 72/78/30 56/39/30 54/79/30 82/80/30 83/81/30 86/82/30 80/83/30 77/84/30
f 84/85/30 85/86/30 18/87/30 76/88/30 81/89/30 79/90/30 78/91/30
f 56/39/31 50/38/31 54/79/31
f 50/38/32 10/34/32 54/79/32
f 54/36/33 55/92/33 63/93/33 90/94/33 87/95/33 82/96/33
f 62/97/33 18/98/33 85/99/33 88/100/33 89/101/33
f 54/36/34 49/35/34 55/92/34
f 49/35/35 17/46/35 55/92/35
f 35/33/36 53/47/36 17/46/36
f 35/33/37 46/28/37 53/47/37
f 46/28/38 15/43/38 53/47/38
f 47/32/39 52/44/39 15/43/39
f 47/32/40 43/25/40 52/44/40
f 43/25/41 14/40/41 52/44/41
f 45/31/42 51/41/42 14/40/42
f 45/31/43 40/22/43 51/41/43
f 40/22/44 12/77/44 51/41/44
f 41/30/45 50/38/45 12/37/45
f 41/30/46 37/19/46 50/38/46
f 37/19/47 10/34/47 50/38/47
f 38/29/48 49/35/48 10/34/48
f 38/29/49 34/16/49 49/35/49
f 34/16/50 17/46/50 49/35/50
f 46/28/51 47/32/51 15/43/51
f 46/28/52 33/27/52 47/32/52
f 33/27/53 8/23/53 47/32/53
f 43/25/54 45/31/54 14/40/54
f 43/25/55 31/24/55 45/31/55
f 31/24/56 6/20/56 45/31/56
f 40/22/57 41/102/57 12/77/57
f 40/22/58 28/21/58 41/102/58
f 28/21/59 4/103/59 41/102/59
f 37/19/60 38/29/60 10/34/60
f 37/19/61 22/18/61 38/29/61
f 22/18/62 3/4/62 38/29/62
f 34/16/63 35/33/63 17/46/63
f 34/16/64 24/6/64 35/33/64
f 24/6/65 9/26/65 35/33/65
f 25/15/66 33/27/66 9/26/66
f 25/15/67 29/14/67 33/27/67
f 29/14/68 8/23/68 33/27/68
f 29/12/69 31/24/69 8/23/69
f 29/12/70 26/11/70 31/24/70
f 26/11/71 6/20/71 31/24/71
f 26/9/72 28/21/72 6/20/72
f 26/9/73 19/8/73 28/21/73
f 19/8/74 4/103/74 28/21/74
f 24/6/75 25/104/75 9/26/75
f 24/6/76 21/5/76 25/104/76
f 21/5/77 1/105/77 25/104/77
f 19/3/78 22/18/78 4/17/78
f 19/3/79 21/2/79 22/18/79
f 21/2/80 3/4/80 22/18/80
f 90/106/81 13/107/81 5/108/81 83/109/81 82/110/81 87/111/81
f 86/112/82 20/113/82 11/114/82 77/115/82 80/116/82
f 71/117/83 16/118/83 7/119/83 75/120/83
f 70/121/84 67/122/84 23/123/84 2/124/84 61/125/84 64/126/84
f 11/114/85 16/118/85 71/117/85 72/127/85 77/115/85
f 61/128/86 2/129/86 13/107/86 90/106/86 63/130/86
f 7/119/87 23/123/87 67/122/87 68/131/87 75/120/87
f 83/109/88 5/108/88 20/113/88 86/112/88
f 30/108/89 39/107/89 89/132/89 88/133/89 85/134/89 84/135/89
f 36/114/90 44/113/90 78/136/90 79/137/90 81/138/90
f 74/139/91 32/119/91 42/118/91 73/140/91
f 59/141/92 60/142/92 27/124/92 48/123/92 66/143/92 69/144/92
f 73/140/93 42/118/93 36/114/93 81/138/93 76/145/93
f 89/132/94 39/107/94 27/129/94 60/146/94 62/147/94
f 66/143/95 48/123/95 32/119/95 74/139/95 65/148/95
f 78/136/96 44/113/96 30/108/96 84/135/96
f 2/129/97 27/129/97 39/107/97 13/107/97
f 5/108/98 30/108/98 44/113/98 20/113/98
f 11/114/99 36/114/99 42/118/99 16/118/99
f 7/119/100 32/119/100 48/123/100 23/123/100
f 13/107/101 39/107/101 30/108/101 5/108/101
f 16/118/102 42/118/102 32/119/102 7/119/102
f 20/113/103 44/113/103 36/114/103 11/114/103
f 23/123/104 48/123/104 27/124/104 2/124/104
