# Blender 4.3.2
# www.blender.org
mtllib briefcase.mtl
o Cube
v -1.040474 -0.145513 -0.236853
v -1.040474 1.133873 -0.236853
v 1.040474 -0.145514 -0.236853
v -0.103906 1.227974 0.084295
v 1.040474 1.133873 -0.236853
v -0.103918 1.227974 -0.002904
v 1.040474 1.133873 0.084295
v -1.040474 -0.145513 0.084295
v 1.040474 -0.145514 0.084295
v 0.096088 1.228552 0.084295
v -1.040474 1.133873 0.084295
v 0.096083 1.228552 -0.002917
v 0.096161 1.227974 0.084295
v 0.096149 1.227974 -0.002904
v -0.371513 1.133873 0.084295
v 0.355401 1.133873 0.084295
v -0.371509 1.133873 -0.002898
v 0.355398 1.133873 -0.002922
v -0.201932 1.133873 0.084295
v 0.203890 1.133873 0.084295
v -0.201945 1.133873 -0.002904
v 0.203885 1.133873 -0.002917
v 0.234379 1.123449 0.058237
v 0.234373 1.123449 -0.028975
v -0.812243 1.133873 0.084295
v -0.561627 1.133873 0.084295
v -0.815153 1.133873 0.008017
v -0.562647 1.133873 0.010749
v 0.579674 1.133873 0.084295
v 0.818465 1.133873 0.084295
v 0.579058 1.133873 -0.005631
v 0.817132 1.133873 -0.005071
v -0.812243 1.156965 0.084295
v -0.561627 1.156965 0.084295
v -0.815153 1.156965 0.008017
v -0.562647 1.156965 0.010749
v 0.579674 1.154366 0.084295
v 0.818465 1.154366 0.084295
v 0.579058 1.154366 -0.005631
v 0.817132 1.154366 -0.005071
v -1.008720 -0.113759 -0.205098
v -1.008719 1.102119 -0.205098
v 1.008720 -0.113759 -0.205098
v 1.008720 1.102119 -0.205098
v 1.001583 1.094982 0.084295
v -1.001583 -0.106623 0.084295
v 1.001583 -0.106623 0.084295
v -1.001583 1.094983 0.084295
v -0.371513 1.078873 0.084295
v 0.355401 1.078873 0.084295
v -0.371509 1.078873 -0.002898
v 0.355398 1.078873 -0.002922
v -0.201932 1.078873 0.084295
v 0.199922 1.079017 0.084295
v -0.201945 1.078873 -0.002904
v 0.199142 1.079078 -0.002917
v 0.216585 1.071406 0.058238
v 0.216580 1.071406 -0.028974
v -0.780661 1.103034 0.051485
v -0.593431 1.101785 0.052928
v -0.782898 1.102258 0.039403
v -0.594317 1.102047 0.042515
v 0.611401 1.102284 0.052350
v 0.786657 1.101760 0.052958
v 0.610897 1.102145 0.026065
v 0.785603 1.102069 0.026857
v -0.781154 1.125099 0.051998
v -0.593620 1.125250 0.052742
v -0.782898 1.125349 0.039403
v -0.594317 1.125139 0.042515
v 0.611310 1.122592 0.052442
v 0.786453 1.122654 0.052757
v 0.610897 1.122638 0.026065
v 0.785603 1.122562 0.026857
vn -0.0000 -0.0000 -1.0000
vn -0.0000 -1.0000 -0.0000
vn 1.0000 -0.0000 -0.0000
vn -1.0000 -0.0000 -0.0000
vn -0.0000 1.0000 -0.0000
vn 0.3235 0.9462 -0.0000
vn 0.0108 -0.0000 -0.9999
vn -1.0000 -0.0000 0.0069
vn -0.0000 -0.0000 1.0000
vn 0.9999 -0.0000 -0.0139
vn -0.9993 -0.0000 0.0381
vn 0.0024 -0.0000 -1.0000
vn 0.9999 -0.0000 -0.0149
vn -0.0000 0.9997 -0.0247
vn -0.9997 -0.0000 -0.0247
vn 0.9997 -0.0000 -0.0247
vn 0.0001 -0.9988 -0.0492
vn -0.0000 0.0006 -1.0000
vn -0.0011 -1.0000 -0.0003
vn 0.0004 -1.0000 -0.0004
vn -0.4070 -0.9134 0.0015
vn -0.0165 -0.0000 0.9999
vn 0.9998 0.0023 -0.0174
vn -0.0001 -1.0000 -0.0061
vn 0.0059 0.0073 -1.0000
vn -0.9971 -0.0037 0.0764
vn 0.9871 0.0126 -0.1595
vn -0.0000 -1.0000 0.0009
vn -0.0045 -0.0000 1.0000
vn 0.0026 -0.0026 -1.0000
vn -0.9993 -0.0047 0.0366
vn -0.0725 -0.3414 0.9371
vn -0.0892 -0.3085 0.9470
vn 0.9462 -0.3235 -0.0001
vn -0.7018 0.1480 -0.6968
vn 0.7084 -0.1442 0.6909
vn 0.0744 -0.3621 0.9292
vn -0.0043 -0.7140 0.7001
vn 0.0784 -0.3196 0.9443
vn -0.0019 -0.7048 0.7094
vn 0.6925 -0.7214 -0.0001
vn 0.6599 0.7514 -0.0000
vt 0.000261 0.609298
vt 1.000193 0.609670
vt 0.999881 0.999879
vt -0.000073 0.999764
vt 1.000778 0.599744
vt 1.000037 0.808744
vt 0.000181 0.802235
vt 0.000922 0.593235
vt 1.001410 0.861107
vt 0.001607 0.868525
vt -0.000255 0.617558
vt 0.999548 0.610140
vt 1.000169 0.866126
vt 0.000339 0.864970
vt 0.000629 0.613996
vt 1.000459 0.615152
vt 0.679753 0.149335
vt 0.679646 0.107440
vt 0.598173 0.107644
vt 0.403178 0.108130
vt 0.330378 0.108312
vt 0.330482 0.150218
vt 0.222722 0.150491
vt 0.222909 0.107282
vt 0.108519 0.107841
vt 0.107987 0.150781
vt 0.001315 0.151051
vt 0.000925 -0.003256
vt 1.000789 -0.005784
vt 1.001179 0.148523
vt 0.891518 0.148800
vt 0.892823 0.112146
vt 0.771501 0.113765
vt 0.771100 0.149104
vt 0.403281 0.150034
vt 0.598273 0.149541
vt 0.891518 0.184089
vt 0.771101 0.184393
vt 0.222723 0.185780
vt 0.107987 0.186070
vt 0.465492 0.110773
vt 0.463721 0.150518
vt 0.606059 0.150030
vt 0.606291 0.108132
vt 0.444852 0.116433
vt 0.600126 0.114968
vt 0.598273 0.156377
vt 0.447394 0.154912
vt 0.632471 0.116369
vt 0.451807 0.117834
vt 0.452887 0.157785
vt 0.635016 0.154856
s 0
usemtl BriefcaseMaterial
f 3/1/1 1/2/1 2/3/1 5/4/1
f 3/5/2 9/6/2 8/7/2 1/8/2
f 7/9/3 9/10/3 3/11/3 5/12/3
f 8/13/4 11/14/4 2/15/4 1/16/4
f 15/17/5 17/18/5 21/19/5 22/20/5 18/21/5 16/22/5 29/23/5 31/24/5 32/25/5 30/26/5 7/27/5 5/28/5 2/29/5 11/30/5 25/31/5 27/32/5 28/33/5 26/34/5
f 16/22/5 18/21/5 22/20/5 20/35/5
f 20/35/5 22/20/5 21/19/5 19/36/5
f 19/36/5 21/19/5 17/18/5 15/17/5
f 22/20/6 20/35/6 23/35/6 24/20/6
f 28/33/7 27/32/7 35/32/7 36/33/7
f 31/24/8 29/23/8 37/23/8 39/24/8
f 34/34/5 36/33/5 35/32/5 33/31/5
f 25/37/9 26/38/9 34/38/9 33/37/9
f 26/34/10 28/33/10 36/33/10 34/34/10
f 27/32/11 25/31/11 33/31/11 35/32/11
f 38/26/5 40/25/5 39/24/5 37/23/5
f 32/25/12 31/24/12 39/24/12 40/25/12
f 29/39/9 30/40/9 38/40/9 37/39/9
f 30/26/13 32/25/13 40/25/13 38/26/13
f 43/1/9 44/4/9 42/3/9 41/2/9
f 43/5/14 41/8/14 46/7/14 47/6/14
f 45/9/15 44/12/15 43/11/15 47/10/15
f 46/13/16 41/16/16 42/15/16 48/14/16
f 65/24/17 63/23/17 50/22/17 52/21/17 56/20/17 51/18/17 49/17/17 60/34/17 62/33/17 61/32/17 59/31/17 48/30/17 42/29/17 44/28/17 45/27/17 64/26/17 66/25/17
f 56/20/18 55/19/18 51/18/18
f 50/22/19 54/35/19 56/20/19 52/21/19
f 54/35/20 53/36/20 55/19/20 56/20/20
f 53/36/2 49/17/2 51/18/2 55/19/2
f 56/20/21 58/20/21 57/35/21 54/35/21
f 62/33/22 70/33/22 69/32/22 61/32/22
f 65/24/23 73/24/23 71/23/23 63/23/23
f 68/34/24 67/31/24 69/32/24 70/33/24
f 59/37/25 67/37/25 68/38/25 60/38/25
f 60/34/26 68/34/26 70/33/26 62/33/26
f 61/32/27 69/32/27 67/31/27 59/31/27
f 72/26/28 71/23/28 73/24/28 74/25/28
f 66/25/29 74/25/29 73/24/29 65/24/29
f 63/39/30 71/39/30 72/40/30 64/40/30
f 64/26/31 72/26/31 74/25/31 66/25/31
f 11/14/9 8/13/9 46/13/9 48/14/9
f 9/10/9 7/9/9 45/9/9 47/10/9
f 8/7/9 9/6/9 47/6/9 46/7/9
f 7/27/32 30/26/32 64/26/32 45/27/32
f 15/17/33 26/34/33 60/34/33 49/17/33
f 16/22/9 20/35/9 54/35/9 50/22/9
f 19/36/9 15/17/9 49/17/9 53/36/9
f 20/35/9 19/36/9 53/36/9 54/35/9
f 24/20/34 23/35/34 57/35/34 58/20/34
f 22/20/35 24/20/35 58/20/35 56/20/35
f 23/35/36 20/35/36 54/35/36 57/35/36
f 25/31/37 11/30/37 48/30/37 59/31/37
f 26/38/38 25/37/38 59/37/38 60/38/38
f 29/23/39 16/22/39 50/22/39 63/23/39
f 30/40/40 29/39/40 63/39/40 64/40/40
f 6/41/5 4/42/5 13/43/5 14/44/5
f 21/45/41 6/46/41 4/47/41 19/48/41
f 22/49/42 12/50/42 10/51/42 20/52/42
o Cube.001
v -1.040474 -0.145513 0.236853
v -1.040474 1.133873 0.236853
v 1.040474 -0.145514 0.236853
v 1.040474 1.133873 0.236853
v 1.040474 1.133873 0.084295
v -1.040474 -0.145513 0.084295
v 1.040474 -0.145514 0.084295
v -1.040474 1.133873 0.084295
v -0.371513 1.133873 0.084295
v 0.355401 1.133873 0.084295
v -0.201932 1.133873 0.084295
v 0.203890 1.133873 0.084295
v -0.812243 1.133873 0.084295
v -0.561627 1.133873 0.084295
v 0.579674 1.133873 0.084295
v 0.818465 1.133873 0.084295
v -1.008720 -0.113759 0.205098
v -1.008719 1.102119 0.205098
v 1.008720 -0.113759 0.205098
v 1.008720 1.102119 0.205098
v 1.001583 1.094982 0.084295
v -1.001583 -0.106623 0.084295
v 1.001583 -0.106623 0.084295
v -1.001583 1.094983 0.084295
v -0.371513 1.078873 0.084295
v 0.355401 1.078873 0.084295
v -0.201932 1.078873 0.084295
v 0.203890 1.078873 0.084295
v -0.812243 1.078873 0.084295
v -0.561627 1.078873 0.084295
v 0.579674 1.078873 0.084295
v 0.818465 1.078873 0.084295
vn -1.0000 -0.0000 -0.0000
vn 1.0000 -0.0000 -0.0000
vn -0.0000 1.0000 -0.0000
vn -0.0000 -0.0000 1.0000
vn -0.0000 -1.0000 -0.0000
vn 0.9983 -0.0000 0.0590
vn -0.9983 -0.0000 0.0590
vn -0.0000 -0.9843 0.1768
vn -0.0000 -0.0000 -1.0000
vn -0.0000 0.9983 0.0590
vt 0.000767 0.494604
vt 1.000597 0.495760
vt 1.000459 0.614982
vt 0.000629 0.613826
vt 0.999986 0.609180
vt 0.000195 0.618173
vt -0.000877 0.498955
vt 0.998913 0.489962
vt 1.001179 0.183812
vt 1.001365 0.257113
vt 0.001501 0.259641
vt 0.001315 0.186340
vt 0.107987 0.186070
vt 0.222723 0.185780
vt 0.330483 0.185507
vt 0.403281 0.185323
vt 0.598273 0.184830
vt 0.679754 0.184624
vt 0.771101 0.184393
vt 0.891518 0.184089
vt 1.000416 0.999732
vt 0.000044 1.000783
vt 0.000074 0.609116
vt 1.000425 0.609610
vt 0.001275 0.493772
vt 1.001131 0.500281
vt 1.000779 0.599564
vt 0.000923 0.593055
s 0
usemtl BriefcaseMaterial
f 82/53/43 80/54/43 75/55/43 76/56/43
f 78/57/44 77/58/44 81/59/44 79/60/44
f 82/61/45 76/62/45 78/63/45 79/64/45 90/65/45 89/66/45 84/67/45 86/68/45 85/69/45 83/70/45 88/71/45 87/72/45
f 75/73/46 77/74/46 78/75/46 76/76/46
f 80/77/47 81/78/47 77/79/47 75/80/47
f 98/53/48 92/56/48 91/55/48 96/54/48
f 94/57/49 95/60/49 97/59/49 93/58/49
f 98/61/50 103/72/50 104/71/50 99/70/50 101/69/50 102/68/50 100/67/50 105/66/50 106/65/50 95/64/50 94/63/50 92/62/50
f 91/73/51 92/76/51 94/75/51 93/74/51
f 96/77/52 91/80/52 93/79/52 97/78/52
f 80/54/51 82/53/51 98/53/51 96/54/51
f 79/60/51 81/59/51 97/59/51 95/60/51
f 81/78/51 80/77/51 96/77/51 97/78/51
f 90/65/51 79/64/51 95/64/51 106/65/51
f 88/71/51 83/70/51 99/70/51 104/71/51
f 86/68/51 84/67/51 100/67/51 102/68/51
f 83/70/51 85/69/51 101/69/51 99/70/51
f 85/69/51 86/68/51 102/68/51 101/69/51
f 82/61/51 87/72/51 103/72/51 98/61/51
f 87/72/51 88/71/51 104/71/51 103/72/51
f 84/67/51 89/66/51 105/66/51 100/67/51
f 89/66/51 90/65/51 106/65/51 105/66/51
